<?xml version="1.0" encoding="UTF-8" standalone="no"?>
<!-- This is a Stata 17.0 generated SVG file (http://www.stata.com) -->

<svg version="1.1" width="5.500in" height="4.000in" viewBox="0 0 3960 2880" xmlns="http://www.w3.org/2000/svg" xmlns:xlink="http://www.w3.org/1999/xlink">
	<desc>Stata Graph - Graph</desc>
	<rect x="0" y="0" width="3960" height="2880" style="fill:#FFFFFF;stroke:none"/>
	<rect x="0.00" y="0.00" width="3959.88" height="2880.00" style="fill:#FFFFFF"/>
	<rect x="2.88" y="2.88" width="3954.12" height="2874.24" style="fill:none;stroke:#FFFFFF;stroke-width:5.76"/>
	<rect x="393.68" y="278.23" width="3462.46" height="2208.07" style="fill:none;stroke:#000000;stroke-width:5.76"/>
	<circle cx="521.73" cy="981.00" r="26.35" style="fill:#8F96A9"/>
	<circle cx="521.73" cy="981.00" r="22.03" style="fill:none;stroke:#1E2D53;stroke-width:8.64"/>
	<circle cx="492.53" cy="820.49" r="26.35" style="fill:#8F96A9"/>
	<circle cx="492.53" cy="820.49" r="22.03" style="fill:none;stroke:#1E2D53;stroke-width:8.64"/>
	<circle cx="2695.40" cy="419.03" r="26.35" style="fill:#8F96A9"/>
	<circle cx="2695.40" cy="419.03" r="22.03" style="fill:none;stroke:#1E2D53;stroke-width:8.64"/>
	<circle cx="494.13" cy="1061.19" r="26.35" style="fill:#8F96A9"/>
	<circle cx="494.13" cy="1061.19" r="22.03" style="fill:none;stroke:#1E2D53;stroke-width:8.64"/>
	<circle cx="636.20" cy="1302.01" r="26.35" style="fill:#8F96A9"/>
	<circle cx="636.20" cy="1302.01" r="22.03" style="fill:none;stroke:#1E2D53;stroke-width:8.64"/>
	<circle cx="2574.37" cy="499.35" r="26.35" style="fill:#8F96A9"/>
	<circle cx="2574.37" cy="499.35" r="22.03" style="fill:none;stroke:#1E2D53;stroke-width:8.64"/>
	<circle cx="556.01" cy="1061.19" r="26.35" style="fill:#8F96A9"/>
	<circle cx="556.01" cy="1061.19" r="22.03" style="fill:none;stroke:#1E2D53;stroke-width:8.64"/>
	<circle cx="840.02" cy="900.68" r="26.35" style="fill:#8F96A9"/>
	<circle cx="840.02" cy="900.68" r="22.03" style="fill:none;stroke:#1E2D53;stroke-width:8.64"/>
	<circle cx="884.32" cy="740.17" r="26.35" style="fill:#8F96A9"/>
	<circle cx="884.32" cy="740.17" r="22.03" style="fill:none;stroke:#1E2D53;stroke-width:8.64"/>
	<circle cx="3214.28" cy="659.86" r="26.35" style="fill:#8F96A9"/>
	<circle cx="3214.28" cy="659.86" r="22.03" style="fill:none;stroke:#1E2D53;stroke-width:8.64"/>
	<circle cx="734.83" cy="1141.51" r="26.35" style="fill:#8F96A9"/>
	<circle cx="734.83" cy="1141.51" r="22.03" style="fill:none;stroke:#1E2D53;stroke-width:8.64"/>
	<circle cx="2482.43" cy="579.66" r="26.35" style="fill:#8F96A9"/>
	<circle cx="2482.43" cy="579.66" r="22.03" style="fill:none;stroke:#1E2D53;stroke-width:8.64"/>
	<circle cx="2476.61" cy="499.35" r="26.35" style="fill:#8F96A9"/>
	<circle cx="2476.61" cy="499.35" r="22.03" style="fill:none;stroke:#1E2D53;stroke-width:8.64"/>
	<circle cx="535.10" cy="900.68" r="26.35" style="fill:#8F96A9"/>
	<circle cx="535.10" cy="900.68" r="22.03" style="fill:none;stroke:#1E2D53;stroke-width:8.64"/>
	<circle cx="2673.74" cy="579.66" r="26.35" style="fill:#8F96A9"/>
	<circle cx="2673.74" cy="579.66" r="22.03" style="fill:none;stroke:#1E2D53;stroke-width:8.64"/>
	<circle cx="1434.88" cy="499.35" r="26.35" style="fill:#8F96A9"/>
	<circle cx="1434.88" cy="499.35" r="22.03" style="fill:none;stroke:#1E2D53;stroke-width:8.64"/>
	<circle cx="830.86" cy="1061.19" r="26.35" style="fill:#8F96A9"/>
	<circle cx="830.86" cy="1061.19" r="22.03" style="fill:none;stroke:#1E2D53;stroke-width:8.64"/>
	<circle cx="2017.13" cy="659.86" r="26.35" style="fill:#8F96A9"/>
	<circle cx="2017.13" cy="659.86" r="22.03" style="fill:none;stroke:#1E2D53;stroke-width:8.64"/>
	<circle cx="2132.34" cy="499.35" r="26.35" style="fill:#8F96A9"/>
	<circle cx="2132.34" cy="499.35" r="22.03" style="fill:none;stroke:#1E2D53;stroke-width:8.64"/>
	<circle cx="566.03" cy="1542.84" r="26.35" style="fill:#8F96A9"/>
	<circle cx="566.03" cy="1542.84" r="22.03" style="fill:none;stroke:#1E2D53;stroke-width:8.64"/>
	<circle cx="485.84" cy="1382.33" r="26.35" style="fill:#8F96A9"/>
	<circle cx="485.84" cy="1382.33" r="22.03" style="fill:none;stroke:#1E2D53;stroke-width:8.64"/>
	<circle cx="656.25" cy="1141.51" r="26.35" style="fill:#8F96A9"/>
	<circle cx="656.25" cy="1141.51" r="22.03" style="fill:none;stroke:#1E2D53;stroke-width:8.64"/>
	<circle cx="666.27" cy="981.00" r="26.35" style="fill:#8F96A9"/>
	<circle cx="666.27" cy="981.00" r="22.03" style="fill:none;stroke:#1E2D53;stroke-width:8.64"/>
	<circle cx="561.83" cy="900.68" r="26.35" style="fill:#8F96A9"/>
	<circle cx="561.83" cy="900.68" r="22.03" style="fill:none;stroke:#1E2D53;stroke-width:8.64"/>
	<circle cx="485.84" cy="1382.33" r="26.35" style="fill:#8F96A9"/>
	<circle cx="485.84" cy="1382.33" r="22.03" style="fill:none;stroke:#1E2D53;stroke-width:8.64"/>
	<circle cx="2524.13" cy="499.35" r="26.35" style="fill:#8F96A9"/>
	<circle cx="2524.13" cy="499.35" r="22.03" style="fill:none;stroke:#1E2D53;stroke-width:8.64"/>
	<circle cx="3320.34" cy="499.35" r="26.35" style="fill:#8F96A9"/>
	<circle cx="3320.34" cy="499.35" r="22.03" style="fill:none;stroke:#1E2D53;stroke-width:8.64"/>
	<circle cx="780.74" cy="900.68" r="26.35" style="fill:#8F96A9"/>
	<circle cx="780.74" cy="900.68" r="22.03" style="fill:none;stroke:#1E2D53;stroke-width:8.64"/>
	<circle cx="1345.41" cy="740.17" r="26.35" style="fill:#8F96A9"/>
	<circle cx="1345.41" cy="740.17" r="22.03" style="fill:none;stroke:#1E2D53;stroke-width:8.64"/>
	<circle cx="567.64" cy="1221.82" r="26.35" style="fill:#8F96A9"/>
	<circle cx="567.64" cy="1221.82" r="22.03" style="fill:none;stroke:#1E2D53;stroke-width:8.64"/>
	<circle cx="642.88" cy="1382.33" r="26.35" style="fill:#8F96A9"/>
	<circle cx="642.88" cy="1382.33" r="22.03" style="fill:none;stroke:#1E2D53;stroke-width:8.64"/>
	<circle cx="763.17" cy="900.68" r="26.35" style="fill:#8F96A9"/>
	<circle cx="763.17" cy="900.68" r="22.03" style="fill:none;stroke:#1E2D53;stroke-width:8.64"/>
	<circle cx="1271.04" cy="740.17" r="26.35" style="fill:#8F96A9"/>
	<circle cx="1271.04" cy="740.17" r="22.03" style="fill:none;stroke:#1E2D53;stroke-width:8.64"/>
	<circle cx="1632.02" cy="499.35" r="26.35" style="fill:#8F96A9"/>
	<circle cx="1632.02" cy="499.35" r="22.03" style="fill:none;stroke:#1E2D53;stroke-width:8.64"/>
	<circle cx="2591.08" cy="419.03" r="26.35" style="fill:#8F96A9"/>
	<circle cx="2591.08" cy="419.03" r="22.03" style="fill:none;stroke:#1E2D53;stroke-width:8.64"/>
	<circle cx="3793.93" cy="419.03" r="26.35" style="fill:#8F96A9"/>
	<circle cx="3793.93" cy="419.03" r="22.03" style="fill:none;stroke:#1E2D53;stroke-width:8.64"/>
	<circle cx="484.98" cy="1221.82" r="26.35" style="fill:#8F96A9"/>
	<circle cx="484.98" cy="1221.82" r="22.03" style="fill:none;stroke:#1E2D53;stroke-width:8.64"/>
	<circle cx="718.12" cy="1221.82" r="26.35" style="fill:#8F96A9"/>
	<circle cx="718.12" cy="1221.82" r="22.03" style="fill:none;stroke:#1E2D53;stroke-width:8.64"/>
	<circle cx="535.96" cy="1382.33" r="26.35" style="fill:#8F96A9"/>
	<circle cx="535.96" cy="1382.33" r="22.03" style="fill:none;stroke:#1E2D53;stroke-width:8.64"/>
	<circle cx="2242.60" cy="579.66" r="26.35" style="fill:#8F96A9"/>
	<circle cx="2242.60" cy="579.66" r="22.03" style="fill:none;stroke:#1E2D53;stroke-width:8.64"/>
	<circle cx="533.49" cy="1221.82" r="26.35" style="fill:#8F96A9"/>
	<circle cx="533.49" cy="1221.82" r="22.03" style="fill:none;stroke:#1E2D53;stroke-width:8.64"/>
	<circle cx="2055.49" cy="419.03" r="26.35" style="fill:#8F96A9"/>
	<circle cx="2055.49" cy="419.03" r="22.03" style="fill:none;stroke:#1E2D53;stroke-width:8.64"/>
	<circle cx="601.92" cy="1061.19" r="26.35" style="fill:#8F96A9"/>
	<circle cx="601.92" cy="1061.19" r="22.03" style="fill:none;stroke:#1E2D53;stroke-width:8.64"/>
	<circle cx="608.60" cy="1221.82" r="26.35" style="fill:#8F96A9"/>
	<circle cx="608.60" cy="1221.82" r="22.03" style="fill:none;stroke:#1E2D53;stroke-width:8.64"/>
	<circle cx="591.03" cy="1623.16" r="26.35" style="fill:#8F96A9"/>
	<circle cx="591.03" cy="1623.16" r="22.03" style="fill:none;stroke:#1E2D53;stroke-width:8.64"/>
	<circle cx="488.32" cy="2425.95" r="26.35" style="fill:#8F96A9"/>
	<circle cx="488.32" cy="2425.95" r="22.03" style="fill:none;stroke:#1E2D53;stroke-width:8.64"/>
	<circle cx="515.91" cy="1221.82" r="26.35" style="fill:#8F96A9"/>
	<circle cx="515.91" cy="1221.82" r="22.03" style="fill:none;stroke:#1E2D53;stroke-width:8.64"/>
	<circle cx="599.45" cy="740.17" r="26.35" style="fill:#8F96A9"/>
	<circle cx="599.45" cy="740.17" r="22.03" style="fill:none;stroke:#1E2D53;stroke-width:8.64"/>
	<circle cx="774.92" cy="981.00" r="26.35" style="fill:#8F96A9"/>
	<circle cx="774.92" cy="981.00" r="22.03" style="fill:none;stroke:#1E2D53;stroke-width:8.64"/>
	<circle cx="612.44" cy="1302.01" r="26.35" style="fill:#8F96A9"/>
	<circle cx="612.44" cy="1302.01" r="22.03" style="fill:none;stroke:#1E2D53;stroke-width:8.64"/>
	<circle cx="703.89" cy="820.49" r="26.35" style="fill:#8F96A9"/>
	<circle cx="703.89" cy="820.49" r="22.03" style="fill:none;stroke:#1E2D53;stroke-width:8.64"/>
	<circle cx="831.72" cy="900.68" r="26.35" style="fill:#8F96A9"/>
	<circle cx="831.72" cy="900.68" r="22.03" style="fill:none;stroke:#1E2D53;stroke-width:8.64"/>
	<circle cx="2896.74" cy="579.66" r="26.35" style="fill:#8F96A9"/>
	<circle cx="2896.74" cy="579.66" r="22.03" style="fill:none;stroke:#1E2D53;stroke-width:8.64"/>
	<circle cx="1124.89" cy="900.68" r="26.35" style="fill:#8F96A9"/>
	<circle cx="1124.89" cy="900.68" r="22.03" style="fill:none;stroke:#1E2D53;stroke-width:8.64"/>
	<circle cx="538.44" cy="1783.66" r="26.35" style="fill:#8F96A9"/>
	<circle cx="538.44" cy="1783.66" r="22.03" style="fill:none;stroke:#1E2D53;stroke-width:8.64"/>
	<circle cx="840.88" cy="1382.33" r="26.35" style="fill:#8F96A9"/>
	<circle cx="840.88" cy="1382.33" r="22.03" style="fill:none;stroke:#1E2D53;stroke-width:8.64"/>
	<circle cx="870.95" cy="740.17" r="26.35" style="fill:#8F96A9"/>
	<circle cx="870.95" cy="740.17" r="22.03" style="fill:none;stroke:#1E2D53;stroke-width:8.64"/>
	<circle cx="660.45" cy="1141.51" r="26.35" style="fill:#8F96A9"/>
	<circle cx="660.45" cy="1141.51" r="22.03" style="fill:none;stroke:#1E2D53;stroke-width:8.64"/>
	<circle cx="581.01" cy="1141.51" r="26.35" style="fill:#8F96A9"/>
	<circle cx="581.01" cy="1141.51" r="22.03" style="fill:none;stroke:#1E2D53;stroke-width:8.64"/>
	<circle cx="601.05" cy="1141.51" r="26.35" style="fill:#8F96A9"/>
	<circle cx="601.05" cy="1141.51" r="22.03" style="fill:none;stroke:#1E2D53;stroke-width:8.64"/>
	<circle cx="657.86" cy="1221.82" r="26.35" style="fill:#8F96A9"/>
	<circle cx="657.86" cy="1221.82" r="22.03" style="fill:none;stroke:#1E2D53;stroke-width:8.64"/>
	<circle cx="961.17" cy="820.49" r="26.35" style="fill:#8F96A9"/>
	<circle cx="961.17" cy="820.49" r="22.03" style="fill:none;stroke:#1E2D53;stroke-width:8.64"/>
	<circle cx="748.94" cy="900.68" r="26.35" style="fill:#8F96A9"/>
	<circle cx="748.94" cy="900.68" r="22.03" style="fill:none;stroke:#1E2D53;stroke-width:8.64"/>
	<line x1="390.80" y1="2489.19" x2="390.80" y2="275.35" style="stroke:#000000;stroke-width:5.76"/>
	<line x1="390.80" y1="2345.63" x2="350.83" y2="2345.63" style="stroke:#000000;stroke-width:5.76"/>
	<text x="300.72" y="2345.63" style="font-family:'Helvetica';font-size:99.99px;fill:#000000" transform="rotate(-90 300.72,2345.63)" text-anchor="middle">55</text>
	<line x1="390.80" y1="1944.17" x2="350.83" y2="1944.17" style="stroke:#000000;stroke-width:5.76"/>
	<text x="300.72" y="1944.17" style="font-family:'Helvetica';font-size:99.99px;fill:#000000" transform="rotate(-90 300.72,1944.17)" text-anchor="middle">60</text>
	<line x1="390.80" y1="1542.84" x2="350.83" y2="1542.84" style="stroke:#000000;stroke-width:5.76"/>
	<text x="300.72" y="1542.84" style="font-family:'Helvetica';font-size:99.99px;fill:#000000" transform="rotate(-90 300.72,1542.84)" text-anchor="middle">65</text>
	<line x1="390.80" y1="1141.51" x2="350.83" y2="1141.51" style="stroke:#000000;stroke-width:5.76"/>
	<text x="300.72" y="1141.51" style="font-family:'Helvetica';font-size:99.99px;fill:#000000" transform="rotate(-90 300.72,1141.51)" text-anchor="middle">70</text>
	<line x1="390.80" y1="740.05" x2="350.83" y2="740.05" style="stroke:#000000;stroke-width:5.76"/>
	<text x="300.72" y="740.05" style="font-family:'Helvetica';font-size:99.99px;fill:#000000" transform="rotate(-90 300.72,740.05)" text-anchor="middle">75</text>
	<line x1="390.80" y1="338.71" x2="350.83" y2="338.71" style="stroke:#000000;stroke-width:5.76"/>
	<text x="300.72" y="338.71" style="font-family:'Helvetica';font-size:99.99px;fill:#000000" transform="rotate(-90 300.72,338.71)" text-anchor="middle">80</text>
	<text x="190.71" y="1382.33" style="font-family:'Helvetica';font-size:99.99px;fill:#000000" transform="rotate(-90 190.71,1382.33)" text-anchor="middle">Life expectancy</text>
	<line x1="390.80" y1="2489.19" x2="3859.02" y2="2489.19" style="stroke:#000000;stroke-width:5.76"/>
	<line x1="454.16" y1="2489.19" x2="454.16" y2="2529.16" style="stroke:#000000;stroke-width:5.76"/>
	<text x="454.16" y="2619.14" style="font-family:'Helvetica';font-size:99.99px;fill:#000000" text-anchor="middle">0</text>
	<line x1="1289.47" y1="2489.19" x2="1289.47" y2="2529.16" style="stroke:#000000;stroke-width:5.76"/>
	<text x="1289.47" y="2619.14" style="font-family:'Helvetica';font-size:99.99px;fill:#000000" text-anchor="middle">10000</text>
	<line x1="2124.91" y1="2489.19" x2="2124.91" y2="2529.16" style="stroke:#000000;stroke-width:5.76"/>
	<text x="2124.91" y="2619.14" style="font-family:'Helvetica';font-size:99.99px;fill:#000000" text-anchor="middle">20000</text>
	<line x1="2960.35" y1="2489.19" x2="2960.35" y2="2529.16" style="stroke:#000000;stroke-width:5.76"/>
	<text x="2960.35" y="2619.14" style="font-family:'Helvetica';font-size:99.99px;fill:#000000" text-anchor="middle">30000</text>
	<line x1="3795.66" y1="2489.19" x2="3795.66" y2="2529.16" style="stroke:#000000;stroke-width:5.76"/>
	<text x="3795.66" y="2619.14" style="font-family:'Helvetica';font-size:99.99px;fill:#000000" text-anchor="middle">40000</text>
	<text x="2124.91" y="2729.16" style="font-family:'Helvetica';font-size:99.99px;fill:#000000" text-anchor="middle">GNP per capita</text>
	<text x="2124.91" y="215.98" style="font-family:'Helvetica';font-size:139.96px;fill:#000000" text-anchor="middle">Life expectancy in 1998 vs GNP per capita</text>
</svg>
