<?xml version="1.0" encoding="UTF-8" standalone="no"?>
<!-- This is a Stata 17.0 generated SVG file (http://www.stata.com) -->

<svg version="1.1" width="5.500in" height="4.000in" viewBox="0 0 3960 2880" xmlns="http://www.w3.org/2000/svg" xmlns:xlink="http://www.w3.org/1999/xlink">
	<desc>Stata Graph - Graph</desc>
	<rect x="0" y="0" width="3960" height="2880" style="fill:#FFFFFF;stroke:none"/>
	<rect x="0.00" y="0.00" width="3959.88" height="2880.00" style="fill:#FFFFFF"/>
	<rect x="2.88" y="2.88" width="3954.12" height="2874.24" style="fill:none;stroke:#FFFFFF;stroke-width:5.76"/>
	<rect x="393.68" y="278.23" width="3462.46" height="2208.07" style="fill:none;stroke:#000000;stroke-width:5.76"/>
	<circle cx="1162.51" cy="981.00" r="26.35" style="fill:#8F96A9"/>
	<circle cx="1162.51" cy="981.00" r="22.03" style="fill:none;stroke:#1E2D53;stroke-width:8.64"/>
	<circle cx="821.58" cy="820.49" r="26.35" style="fill:#8F96A9"/>
	<circle cx="821.58" cy="820.49" r="22.03" style="fill:none;stroke:#1E2D53;stroke-width:8.64"/>
	<circle cx="3271.83" cy="419.03" r="26.35" style="fill:#8F96A9"/>
	<circle cx="3271.83" cy="419.03" r="22.03" style="fill:none;stroke:#1E2D53;stroke-width:8.64"/>
	<circle cx="847.19" cy="1061.19" r="26.35" style="fill:#8F96A9"/>
	<circle cx="847.19" cy="1061.19" r="22.03" style="fill:none;stroke:#1E2D53;stroke-width:8.64"/>
	<circle cx="1759.11" cy="1302.01" r="26.35" style="fill:#8F96A9"/>
	<circle cx="1759.11" cy="1302.01" r="22.03" style="fill:none;stroke:#1E2D53;stroke-width:8.64"/>
	<circle cx="3238.29" cy="499.35" r="26.35" style="fill:#8F96A9"/>
	<circle cx="3238.29" cy="499.35" r="22.03" style="fill:none;stroke:#1E2D53;stroke-width:8.64"/>
	<circle cx="1409.27" cy="1061.19" r="26.35" style="fill:#8F96A9"/>
	<circle cx="1409.27" cy="1061.19" r="22.03" style="fill:none;stroke:#1E2D53;stroke-width:8.64"/>
	<circle cx="2211.66" cy="900.68" r="26.35" style="fill:#8F96A9"/>
	<circle cx="2211.66" cy="900.68" r="22.03" style="fill:none;stroke:#1E2D53;stroke-width:8.64"/>
	<circle cx="2277.12" cy="740.17" r="26.35" style="fill:#8F96A9"/>
	<circle cx="2277.12" cy="740.17" r="22.03" style="fill:none;stroke:#1E2D53;stroke-width:8.64"/>
	<circle cx="3397.19" cy="659.86" r="26.35" style="fill:#8F96A9"/>
	<circle cx="3397.19" cy="659.86" r="22.03" style="fill:none;stroke:#1E2D53;stroke-width:8.64"/>
	<circle cx="2019.85" cy="1141.51" r="26.35" style="fill:#8F96A9"/>
	<circle cx="2019.85" cy="1141.51" r="22.03" style="fill:none;stroke:#1E2D53;stroke-width:8.64"/>
	<circle cx="3211.56" cy="579.66" r="26.35" style="fill:#8F96A9"/>
	<circle cx="3211.56" cy="579.66" r="22.03" style="fill:none;stroke:#1E2D53;stroke-width:8.64"/>
	<circle cx="3209.83" cy="499.35" r="26.35" style="fill:#8F96A9"/>
	<circle cx="3209.83" cy="499.35" r="22.03" style="fill:none;stroke:#1E2D53;stroke-width:8.64"/>
	<circle cx="1271.16" cy="900.68" r="26.35" style="fill:#8F96A9"/>
	<circle cx="1271.16" cy="900.68" r="22.03" style="fill:none;stroke:#1E2D53;stroke-width:8.64"/>
	<circle cx="3265.89" cy="579.66" r="26.35" style="fill:#8F96A9"/>
	<circle cx="3265.89" cy="579.66" r="22.03" style="fill:none;stroke:#1E2D53;stroke-width:8.64"/>
	<circle cx="2773.73" cy="499.35" r="26.35" style="fill:#8F96A9"/>
	<circle cx="2773.73" cy="499.35" r="22.03" style="fill:none;stroke:#1E2D53;stroke-width:8.64"/>
	<circle cx="2197.18" cy="1061.19" r="26.35" style="fill:#8F96A9"/>
	<circle cx="2197.18" cy="1061.19" r="22.03" style="fill:none;stroke:#1E2D53;stroke-width:8.64"/>
	<circle cx="3054.52" cy="659.86" r="26.35" style="fill:#8F96A9"/>
	<circle cx="3054.52" cy="659.86" r="22.03" style="fill:none;stroke:#1E2D53;stroke-width:8.64"/>
	<circle cx="3097.46" cy="499.35" r="26.35" style="fill:#8F96A9"/>
	<circle cx="3097.46" cy="499.35" r="22.03" style="fill:none;stroke:#1E2D53;stroke-width:8.64"/>
	<circle cx="1465.82" cy="1542.84" r="26.35" style="fill:#8F96A9"/>
	<circle cx="1465.82" cy="1542.84" r="22.03" style="fill:none;stroke:#1E2D53;stroke-width:8.64"/>
	<circle cx="706.37" cy="1382.33" r="26.35" style="fill:#8F96A9"/>
	<circle cx="706.37" cy="1382.33" r="22.03" style="fill:none;stroke:#1E2D53;stroke-width:8.64"/>
	<circle cx="1822.10" cy="1141.51" r="26.35" style="fill:#8F96A9"/>
	<circle cx="1822.10" cy="1141.51" r="22.03" style="fill:none;stroke:#1E2D53;stroke-width:8.64"/>
	<circle cx="1851.18" cy="981.00" r="26.35" style="fill:#8F96A9"/>
	<circle cx="1851.18" cy="981.00" r="22.03" style="fill:none;stroke:#1E2D53;stroke-width:8.64"/>
	<circle cx="1442.93" cy="900.68" r="26.35" style="fill:#8F96A9"/>
	<circle cx="1442.93" cy="900.68" r="22.03" style="fill:none;stroke:#1E2D53;stroke-width:8.64"/>
	<circle cx="706.37" cy="1382.33" r="26.35" style="fill:#8F96A9"/>
	<circle cx="706.37" cy="1382.33" r="22.03" style="fill:none;stroke:#1E2D53;stroke-width:8.64"/>
	<circle cx="3223.94" cy="499.35" r="26.35" style="fill:#8F96A9"/>
	<circle cx="3223.94" cy="499.35" r="22.03" style="fill:none;stroke:#1E2D53;stroke-width:8.64"/>
	<circle cx="3419.96" cy="499.35" r="26.35" style="fill:#8F96A9"/>
	<circle cx="3419.96" cy="499.35" r="22.03" style="fill:none;stroke:#1E2D53;stroke-width:8.64"/>
	<circle cx="2111.18" cy="900.68" r="26.35" style="fill:#8F96A9"/>
	<circle cx="2111.18" cy="900.68" r="22.03" style="fill:none;stroke:#1E2D53;stroke-width:8.64"/>
	<circle cx="2716.07" cy="740.17" r="26.35" style="fill:#8F96A9"/>
	<circle cx="2716.07" cy="740.17" r="22.03" style="fill:none;stroke:#1E2D53;stroke-width:8.64"/>
	<circle cx="1474.73" cy="1221.82" r="26.35" style="fill:#8F96A9"/>
	<circle cx="1474.73" cy="1221.82" r="22.03" style="fill:none;stroke:#1E2D53;stroke-width:8.64"/>
	<circle cx="1780.76" cy="1382.33" r="26.35" style="fill:#8F96A9"/>
	<circle cx="1780.76" cy="1382.33" r="22.03" style="fill:none;stroke:#1E2D53;stroke-width:8.64"/>
	<circle cx="2077.89" cy="900.68" r="26.35" style="fill:#8F96A9"/>
	<circle cx="2077.89" cy="900.68" r="22.03" style="fill:none;stroke:#1E2D53;stroke-width:8.64"/>
	<circle cx="2663.60" cy="740.17" r="26.35" style="fill:#8F96A9"/>
	<circle cx="2663.60" cy="740.17" r="22.03" style="fill:none;stroke:#1E2D53;stroke-width:8.64"/>
	<circle cx="2884.12" cy="499.35" r="26.35" style="fill:#8F96A9"/>
	<circle cx="2884.12" cy="499.35" r="22.03" style="fill:none;stroke:#1E2D53;stroke-width:8.64"/>
	<circle cx="3242.99" cy="419.03" r="26.35" style="fill:#8F96A9"/>
	<circle cx="3242.99" cy="419.03" r="22.03" style="fill:none;stroke:#1E2D53;stroke-width:8.64"/>
	<circle cx="3512.15" cy="419.03" r="26.35" style="fill:#8F96A9"/>
	<circle cx="3512.15" cy="419.03" r="22.03" style="fill:none;stroke:#1E2D53;stroke-width:8.64"/>
	<circle cx="690.28" cy="1221.82" r="26.35" style="fill:#8F96A9"/>
	<circle cx="690.28" cy="1221.82" r="22.03" style="fill:none;stroke:#1E2D53;stroke-width:8.64"/>
	<circle cx="1982.85" cy="1221.82" r="26.35" style="fill:#8F96A9"/>
	<circle cx="1982.85" cy="1221.82" r="22.03" style="fill:none;stroke:#1E2D53;stroke-width:8.64"/>
	<circle cx="1277.35" cy="1382.33" r="26.35" style="fill:#8F96A9"/>
	<circle cx="1277.35" cy="1382.33" r="22.03" style="fill:none;stroke:#1E2D53;stroke-width:8.64"/>
	<circle cx="3135.83" cy="579.66" r="26.35" style="fill:#8F96A9"/>
	<circle cx="3135.83" cy="579.66" r="22.03" style="fill:none;stroke:#1E2D53;stroke-width:8.64"/>
	<circle cx="1258.54" cy="1221.82" r="26.35" style="fill:#8F96A9"/>
	<circle cx="1258.54" cy="1221.82" r="22.03" style="fill:none;stroke:#1E2D53;stroke-width:8.64"/>
	<circle cx="3069.25" cy="419.03" r="26.35" style="fill:#8F96A9"/>
	<circle cx="3069.25" cy="419.03" r="22.03" style="fill:none;stroke:#1E2D53;stroke-width:8.64"/>
	<circle cx="1633.50" cy="1061.19" r="26.35" style="fill:#8F96A9"/>
	<circle cx="1633.50" cy="1061.19" r="22.03" style="fill:none;stroke:#1E2D53;stroke-width:8.64"/>
	<circle cx="1660.23" cy="1221.82" r="26.35" style="fill:#8F96A9"/>
	<circle cx="1660.23" cy="1221.82" r="22.03" style="fill:none;stroke:#1E2D53;stroke-width:8.64"/>
	<circle cx="1587.59" cy="1623.16" r="26.35" style="fill:#8F96A9"/>
	<circle cx="1587.59" cy="1623.16" r="22.03" style="fill:none;stroke:#1E2D53;stroke-width:8.64"/>
	<circle cx="752.15" cy="2425.95" r="26.35" style="fill:#8F96A9"/>
	<circle cx="752.15" cy="2425.95" r="22.03" style="fill:none;stroke:#1E2D53;stroke-width:8.64"/>
	<circle cx="1108.06" cy="1221.82" r="26.35" style="fill:#8F96A9"/>
	<circle cx="1108.06" cy="1221.82" r="22.03" style="fill:none;stroke:#1E2D53;stroke-width:8.64"/>
	<circle cx="1623.23" cy="740.17" r="26.35" style="fill:#8F96A9"/>
	<circle cx="1623.23" cy="740.17" r="22.03" style="fill:none;stroke:#1E2D53;stroke-width:8.64"/>
	<circle cx="2100.29" cy="981.00" r="26.35" style="fill:#8F96A9"/>
	<circle cx="2100.29" cy="981.00" r="22.03" style="fill:none;stroke:#1E2D53;stroke-width:8.64"/>
	<circle cx="1674.96" cy="1302.01" r="26.35" style="fill:#8F96A9"/>
	<circle cx="1674.96" cy="1302.01" r="22.03" style="fill:none;stroke:#1E2D53;stroke-width:8.64"/>
	<circle cx="1949.56" cy="820.49" r="26.35" style="fill:#8F96A9"/>
	<circle cx="1949.56" cy="820.49" r="22.03" style="fill:none;stroke:#1E2D53;stroke-width:8.64"/>
	<circle cx="2198.54" cy="900.68" r="26.35" style="fill:#8F96A9"/>
	<circle cx="2198.54" cy="900.68" r="22.03" style="fill:none;stroke:#1E2D53;stroke-width:8.64"/>
	<circle cx="3323.55" cy="579.66" r="26.35" style="fill:#8F96A9"/>
	<circle cx="3323.55" cy="579.66" r="22.03" style="fill:none;stroke:#1E2D53;stroke-width:8.64"/>
	<circle cx="2544.80" cy="900.68" r="26.35" style="fill:#8F96A9"/>
	<circle cx="2544.80" cy="900.68" r="22.03" style="fill:none;stroke:#1E2D53;stroke-width:8.64"/>
	<circle cx="1295.42" cy="1783.66" r="26.35" style="fill:#8F96A9"/>
	<circle cx="1295.42" cy="1783.66" r="22.03" style="fill:none;stroke:#1E2D53;stroke-width:8.64"/>
	<circle cx="2213.02" cy="1382.33" r="26.35" style="fill:#8F96A9"/>
	<circle cx="2213.02" cy="1382.33" r="22.03" style="fill:none;stroke:#1E2D53;stroke-width:8.64"/>
	<circle cx="2258.19" cy="740.17" r="26.35" style="fill:#8F96A9"/>
	<circle cx="2258.19" cy="740.17" r="22.03" style="fill:none;stroke:#1E2D53;stroke-width:8.64"/>
	<circle cx="1834.35" cy="1141.51" r="26.35" style="fill:#8F96A9"/>
	<circle cx="1834.35" cy="1141.51" r="22.03" style="fill:none;stroke:#1E2D53;stroke-width:8.64"/>
	<circle cx="1541.80" cy="1141.51" r="26.35" style="fill:#8F96A9"/>
	<circle cx="1541.80" cy="1141.51" r="22.03" style="fill:none;stroke:#1E2D53;stroke-width:8.64"/>
	<circle cx="1630.16" cy="1141.51" r="26.35" style="fill:#8F96A9"/>
	<circle cx="1630.16" cy="1141.51" r="22.03" style="fill:none;stroke:#1E2D53;stroke-width:8.64"/>
	<circle cx="1827.05" cy="1221.82" r="26.35" style="fill:#8F96A9"/>
	<circle cx="1827.05" cy="1221.82" r="22.03" style="fill:none;stroke:#1E2D53;stroke-width:8.64"/>
	<circle cx="2376.25" cy="820.49" r="26.35" style="fill:#8F96A9"/>
	<circle cx="2376.25" cy="820.49" r="22.03" style="fill:none;stroke:#1E2D53;stroke-width:8.64"/>
	<circle cx="2049.55" cy="900.68" r="26.35" style="fill:#8F96A9"/>
	<circle cx="2049.55" cy="900.68" r="22.03" style="fill:none;stroke:#1E2D53;stroke-width:8.64"/>
	<circle cx="752.28" cy="2425.82" r="26.35" style="fill:#8F96A9"/>
	<circle cx="752.28" cy="2425.82" r="22.03" style="fill:none;stroke:#1E2D53;stroke-width:8.64"/>
	<text x="794.23" y="2453.83" style="font-family:'Helvetica';font-size:79.94px;fill:#000000">Haiti</text>
	<line x1="390.80" y1="2489.19" x2="390.80" y2="275.35" style="stroke:#000000;stroke-width:5.76"/>
	<line x1="390.80" y1="2345.63" x2="350.83" y2="2345.63" style="stroke:#000000;stroke-width:5.76"/>
	<text x="300.72" y="2345.63" style="font-family:'Helvetica';font-size:99.99px;fill:#000000" transform="rotate(-90 300.72,2345.63)" text-anchor="middle">55</text>
	<line x1="390.80" y1="1944.17" x2="350.83" y2="1944.17" style="stroke:#000000;stroke-width:5.76"/>
	<text x="300.72" y="1944.17" style="font-family:'Helvetica';font-size:99.99px;fill:#000000" transform="rotate(-90 300.72,1944.17)" text-anchor="middle">60</text>
	<line x1="390.80" y1="1542.84" x2="350.83" y2="1542.84" style="stroke:#000000;stroke-width:5.76"/>
	<text x="300.72" y="1542.84" style="font-family:'Helvetica';font-size:99.99px;fill:#000000" transform="rotate(-90 300.72,1542.84)" text-anchor="middle">65</text>
	<line x1="390.80" y1="1141.51" x2="350.83" y2="1141.51" style="stroke:#000000;stroke-width:5.76"/>
	<text x="300.72" y="1141.51" style="font-family:'Helvetica';font-size:99.99px;fill:#000000" transform="rotate(-90 300.72,1141.51)" text-anchor="middle">70</text>
	<line x1="390.80" y1="740.05" x2="350.83" y2="740.05" style="stroke:#000000;stroke-width:5.76"/>
	<text x="300.72" y="740.05" style="font-family:'Helvetica';font-size:99.99px;fill:#000000" transform="rotate(-90 300.72,740.05)" text-anchor="middle">75</text>
	<line x1="390.80" y1="338.71" x2="350.83" y2="338.71" style="stroke:#000000;stroke-width:5.76"/>
	<text x="300.72" y="338.71" style="font-family:'Helvetica';font-size:99.99px;fill:#000000" transform="rotate(-90 300.72,338.71)" text-anchor="middle">80</text>
	<text x="190.71" y="1382.33" style="font-family:'Helvetica';font-size:99.99px;fill:#000000" transform="rotate(-90 190.71,1382.33)" text-anchor="middle">Life expectancy</text>
	<line x1="390.80" y1="2489.19" x2="3859.02" y2="2489.19" style="stroke:#000000;stroke-width:5.76"/>
	<line x1="454.16" y1="2489.19" x2="454.16" y2="2529.16" style="stroke:#000000;stroke-width:5.76"/>
	<text x="454.16" y="2619.14" style="font-family:'Helvetica';font-size:99.99px;fill:#000000" text-anchor="middle">250</text>
	<line x1="1289.47" y1="2489.19" x2="1289.47" y2="2529.16" style="stroke:#000000;stroke-width:5.76"/>
	<text x="1289.47" y="2619.14" style="font-family:'Helvetica';font-size:99.99px;fill:#000000" text-anchor="middle">1000</text>
	<line x1="2124.91" y1="2489.19" x2="2124.91" y2="2529.16" style="stroke:#000000;stroke-width:5.76"/>
	<text x="2124.91" y="2619.14" style="font-family:'Helvetica';font-size:99.99px;fill:#000000" text-anchor="middle">4000</text>
	<line x1="2960.35" y1="2489.19" x2="2960.35" y2="2529.16" style="stroke:#000000;stroke-width:5.76"/>
	<text x="2960.35" y="2619.14" style="font-family:'Helvetica';font-size:99.99px;fill:#000000" text-anchor="middle">16000</text>
	<line x1="3795.66" y1="2489.19" x2="3795.66" y2="2529.16" style="stroke:#000000;stroke-width:5.76"/>
	<text x="3795.66" y="2619.14" style="font-family:'Helvetica';font-size:99.99px;fill:#000000" text-anchor="middle">64000</text>
	<text x="2124.91" y="2729.16" style="font-family:'Helvetica';font-size:99.99px;fill:#000000" text-anchor="middle">GNP per capita (ratio scale)</text>
	<text x="2124.91" y="215.98" style="font-family:'Helvetica';font-size:139.96px;fill:#000000" text-anchor="middle">Life expectancy in 1998 vs GNP per capita</text>
</svg>
