<?xml version="1.0" standalone="no"?>
<!DOCTYPE svg PUBLIC "-//W3C//DTD SVG 20010904//EN"
 "http://www.w3.org/TR/2001/REC-SVG-20010904/DTD/svg10.dtd">
<svg version="1.0" xmlns="http://www.w3.org/2000/svg"
 width="536.000000pt" height="536.000000pt" viewBox="0 0 536.000000 536.000000"
 preserveAspectRatio="xMidYMid meet">
<metadata>
Created by potrace 1.14, written by Peter Selinger 2001-2017
</metadata>
<g transform="translate(0.000000,536.000000) scale(0.100000,-0.100000)"
fill="#000000" stroke="none">
<path d="M0 2680 l0 -2640 700 0 700 0 0 42 c0 24 1 50 1 58 0 8 0 43 -1 78
-2 34 0 65 3 68 3 3 2 18 -3 32 -4 15 -4 37 1 49 4 12 4 25 -1 28 -5 3 -5 18
-1 33 4 15 4 39 0 54 -4 15 -5 29 -2 32 12 12 5 118 -8 127 -8 4 -15 5 -16 1
-2 -4 -31 -6 -65 -4 -35 1 -84 2 -110 2 -27 0 -65 0 -85 0 -21 -1 -76 -1 -123
-1 -47 -1 -91 0 -97 0 -7 1 -19 1 -25 2 -7 0 -53 0 -103 0 -49 0 -108 0 -131
1 -22 1 -45 -2 -51 -5 -18 -11 -24 11 -23 78 0 25 0 44 -1 58 0 6 0 44 0 82 0
39 1 86 1 105 1 213 -1 283 -6 291 -3 5 -2 9 3 9 4 0 7 30 5 67 -4 98 -3 155
1 178 2 11 1 32 -3 46 -4 15 -4 32 0 39 4 6 4 27 0 46 -4 19 -4 36 0 39 5 3 5
18 0 34 -4 15 -4 34 0 41 4 6 4 27 0 46 -4 19 -4 36 0 39 5 3 5 18 0 34 -4 15
-4 34 0 41 4 6 4 27 0 46 -4 19 -4 36 0 39 5 3 5 18 0 34 -4 15 -4 34 0 41 5
7 6 18 4 25 -7 16 -10 125 -4 125 3 0 4 28 3 62 -3 79 -4 112 -3 271 0 71 -2
133 -6 138 -3 5 -2 9 3 9 4 0 7 28 6 62 -3 79 -4 112 -3 271 0 71 -2 133 -6
138 -3 5 -2 9 3 9 4 0 7 30 5 67 -4 98 -3 155 1 178 2 11 1 32 -3 46 -4 15 -4
32 0 39 4 6 4 27 0 46 -4 19 -4 36 0 39 5 3 5 18 0 34 -4 15 -4 34 0 41 4 6 4
27 0 46 -4 19 -4 36 0 39 5 3 5 18 0 34 -4 15 -4 34 0 41 4 6 4 27 0 46 -4 19
-4 36 0 39 5 3 5 18 0 34 -4 15 -4 34 0 41 5 7 6 18 4 25 -7 16 -10 125 -4
125 3 0 4 28 3 62 -3 79 -4 112 -3 271 0 71 -2 133 -6 138 -3 5 -2 9 3 9 4 0
7 28 6 62 -3 79 -4 112 -3 271 0 71 -2 133 -6 138 -3 5 -2 9 3 9 4 0 7 28 5
62 -1 35 -2 84 -2 111 l0 47 -280 0 -280 0 0 -2640z"/>
<path d="M2900 5308 c-163 -21 -165 -21 -250 -49 -36 -12 -69 -22 -75 -23 -24
-5 -136 -64 -210 -112 -99 -63 -220 -171 -285 -254 -48 -61 -88 -118 -106
-150 -10 -19 -22 -37 -25 -40 -5 -4 -72 -138 -74 -150 -1 -3 -7 -17 -13 -31
-12 -31 -32 -103 -38 -139 -2 -14 -6 -35 -9 -47 -14 -61 -20 -179 -20 -383 0
-303 10 -360 100 -610 21 -59 175 -370 219 -442 19 -31 32 -59 30 -61 -3 -2 2
-10 11 -17 8 -7 15 -16 15 -21 0 -5 23 -46 50 -93 28 -47 50 -89 50 -95 0 -6
4 -11 9 -11 5 0 13 -10 16 -22 4 -11 21 -44 37 -72 74 -124 278 -527 318 -626
12 -30 26 -64 31 -75 8 -21 42 -139 54 -190 7 -30 12 -64 21 -145 5 -48 5
-176 0 -206 -2 -11 -6 -37 -10 -59 -35 -207 -155 -368 -341 -460 -120 -59
-179 -70 -470 -90 -22 -2 -44 -4 -48 -4 -5 -1 -6 -5 -2 -10 3 -5 1 -12 -4 -16
-6 -3 -7 -15 -3 -28 5 -12 6 -38 2 -57 -3 -19 -3 -55 0 -80 3 -25 3 -57 0 -70
-4 -14 -4 -36 0 -50 4 -14 4 -36 0 -50 -3 -13 -3 -45 0 -70 3 -25 3 -56 0 -69
-3 -14 -4 -40 -2 -59 l4 -34 167 5 c187 7 204 9 316 37 135 34 334 117 372
155 8 8 18 15 22 15 13 0 114 79 176 138 59 56 162 187 199 253 84 148 174
391 191 513 2 12 7 46 11 76 14 93 8 361 -11 457 -3 15 -8 43 -11 62 -7 42
-61 239 -73 266 -5 11 -24 58 -41 105 -49 128 -176 377 -277 545 -156 259
-367 652 -388 723 -3 12 -11 22 -16 22 -5 0 -9 6 -9 13 0 7 -11 37 -26 66 -50
105 -78 192 -92 286 -9 63 -7 448 3 495 26 131 166 297 312 370 37 19 73 35
78 36 6 2 35 10 65 19 55 16 175 41 240 51 19 3 42 7 50 10 8 3 30 8 49 10 19
3 38 7 42 10 5 3 9 126 9 274 l0 270 -142 -3 c-79 -1 -168 -5 -198 -9z"/>
<path d="M3919 5278 c-1 -24 0 -47 1 -53 1 -5 2 -28 1 -50 0 -22 0 -80 0 -130
0 -49 -1 -108 -1 -130 -4 -156 -4 -185 0 -185 3 0 4 -19 3 -42 -2 -24 -3 -81
-3 -128 1 -47 0 -103 0 -125 -4 -156 -4 -185 0 -185 3 0 4 -21 2 -47 -5 -98
-7 -273 -2 -273 3 0 4 -19 3 -42 -2 -24 -3 -81 -3 -128 1 -47 0 -103 0 -125
-4 -156 -4 -185 0 -185 3 0 4 -19 3 -42 -2 -24 -3 -81 -3 -128 1 -47 0 -103 0
-125 -4 -156 -4 -185 0 -185 3 0 4 -21 2 -47 -4 -57 -4 -55 -3 -118 0 -27 0
-63 0 -80 0 -16 0 -57 1 -90 1 -82 1 -232 0 -280 -4 -156 -4 -185 0 -185 3 0
4 -19 3 -42 -2 -24 -3 -81 -3 -128 1 -47 0 -103 0 -125 -4 -156 -4 -185 0
-185 3 0 4 -21 2 -47 -5 -98 -7 -273 -2 -273 3 0 4 -19 3 -42 -2 -24 -3 -81
-3 -128 1 -47 0 -103 0 -125 -4 -156 -4 -185 0 -185 3 0 4 -19 3 -42 -2 -24
-3 -81 -3 -128 1 -47 0 -103 0 -125 -4 -156 -4 -185 0 -185 3 0 4 -19 2 -42
-2 -45 -3 -120 -2 -224 0 -34 0 -66 -1 -70 -6 -34 -11 -34 721 -34 l720 0 0
298 0 299 -31 1 c-17 0 -33 3 -36 5 -2 3 -20 1 -39 -3 -20 -5 -34 -4 -34 2 0
5 -5 6 -11 2 -6 -3 -40 -6 -75 -5 -72 2 -100 2 -164 1 -25 0 -71 0 -104 0 -32
0 -61 -1 -63 -4 -3 -2 -17 -1 -32 4 -16 4 -34 4 -41 0 -6 -4 -27 -4 -45 0 -18
4 -38 4 -45 0 -7 -4 -27 -4 -46 0 -19 5 -37 4 -40 -1 -3 -5 -11 -6 -17 -2 -7
4 -21 7 -32 8 -13 0 -21 9 -26 32 -3 17 -3 37 1 43 4 6 4 29 0 51 -4 21 -5 39
-1 39 7 0 5 106 -3 125 -2 7 -2 16 1 19 8 7 6 144 -2 156 -3 5 -1 11 4 14 5 4
6 18 2 34 -5 15 -5 36 -1 47 4 11 4 34 -1 52 -4 18 -3 35 1 38 5 3 5 18 0 34
-4 15 -4 34 0 41 5 7 4 23 0 36 -5 12 -7 24 -4 27 7 7 7 224 -1 236 -3 6 -2
11 3 11 6 0 7 14 2 34 -4 19 -5 37 -2 40 7 8 4 144 -3 156 -4 6 -2 10 3 10 6
0 7 14 2 34 -4 19 -4 39 0 46 4 6 4 29 0 51 -4 21 -4 39 0 39 4 0 4 16 0 35
-4 19 -4 37 0 40 5 3 5 17 1 33 -4 15 -4 43 -1 64 4 20 4 42 0 49 -4 6 -4 25
0 40 5 16 5 31 1 34 -5 2 -6 16 -3 30 l4 26 182 0 c99 0 192 0 206 -1 14 -1
32 -1 40 -1 8 0 40 0 70 0 30 0 62 0 70 0 8 1 31 1 50 0 19 -1 42 -1 50 0 8 0
40 1 71 1 l57 0 4 46 c2 25 0 51 -4 57 -3 6 -3 18 2 27 4 8 4 22 0 31 -5 8 -5
21 0 29 4 7 5 23 0 35 -5 12 -5 27 -1 34 5 7 5 27 2 44 -4 18 -4 49 -1 69 4
20 4 42 -1 49 -4 7 -4 20 1 29 5 9 5 22 1 29 -5 7 -5 28 -1 47 4 19 4 34 0 34
-5 0 -6 10 -2 22 4 18 2 20 -16 16 -12 -4 -24 -3 -27 2 -3 4 -20 5 -37 1 -18
-3 -51 -4 -73 -1 -22 3 -57 3 -77 -1 -20 -3 -41 -3 -47 1 -6 3 -34 3 -63 0
-29 -3 -70 -3 -90 1 -20 3 -42 3 -48 -1 -7 -4 -25 -4 -42 -1 -16 3 -61 4 -99
1 -38 -3 -80 -2 -94 2 -14 3 -25 3 -25 -2 0 -5 -12 -5 -27 -1 -25 7 -28 12
-28 49 0 23 -4 42 -8 42 -5 0 -5 5 -1 11 3 6 8 205 10 443 4 603 12 1148 17
1152 2 2 82 6 178 9 96 2 273 7 394 11 121 3 235 6 253 7 l32 0 0 279 0 278
-720 0 -720 0 -1 -42z"/>
</g>
</svg>
