<?xml version="1.0" encoding="UTF-8" standalone="no"?>
<!-- This is a Stata 17.0 generated SVG file (http://www.stata.com) -->

<svg version="1.1" width="5.500in" height="4.000in" viewBox="0 0 3960 2880" xmlns="http://www.w3.org/2000/svg" xmlns:xlink="http://www.w3.org/1999/xlink">
	<desc>Stata Graph - Graph</desc>
	<rect x="0" y="0" width="3960" height="2880" style="fill:#FFFFFF;stroke:none"/>
	<rect x="0.00" y="0.00" width="3959.88" height="2880.00" style="fill:#FFFFFF"/>
	<rect x="2.88" y="2.88" width="3954.12" height="2874.24" style="fill:none;stroke:#FFFFFF;stroke-width:5.76"/>
	<rect x="393.68" y="278.23" width="3462.46" height="1698.08" style="fill:none;stroke:#000000;stroke-width:5.76"/>
	<path d=" M689.91 1875.49 L753.27 1870.17 L816.63 1866.83 L879.99 1865.47 L943.35 1866.33 L1006.83 1869.18 L1070.19 1874.00 L1133.55 1881.06 L1196.91 1890.09 L1260.27 1901.23 L1323.75 1911.87 L1387.11 1900.36 L1450.47 1889.35 L1513.83 1880.44 L1577.19 1863.24 L1640.68 1846.04 L1704.04 1820.30 L1767.40 1795.92 L1830.76 1769.93 L1894.12 1709.04 L1957.48 1639.00 L2020.96 1562.89 L2084.32 1486.66 L2147.68 1362.65 L2211.04 1238.40 L2274.40 1111.06 L2337.89 986.44 L2401.25 898.82 L2464.61 803.91 L2527.97 719.13 L2591.32 611.72 L2654.81 548.48 L2718.17 541.79 L2781.53 502.19 L2844.89 502.19 L2908.25 514.94 L2971.73 556.89 L3035.09 576.82 L3098.45 558.01 L3161.81 564.44 L3225.17 556.15 L3288.53 613.82 L3352.02 698.22 L3415.38 802.92 L3478.74 889.42 L3542.10 1000.30 L3605.46 1147.82 L3668.94 1268.97 L3732.30 1412.16 L3795.66 1546.55" stroke-linejoin="round" style="fill:none;stroke:#006000;stroke-width:8.64"/>
	<path d=" M689.91 1915.71 L700.30 1915.71 L710.70 1915.59 L720.97 1915.59 L731.36 1915.59 L741.76 1915.59 L752.15 1915.59 L762.55 1915.59 L772.94 1915.46 L783.34 1915.46 L793.73 1915.46 L804.13 1915.46 L814.52 1915.34 L824.92 1915.34 L835.31 1915.34 L845.71 1915.21 L856.10 1915.21 L866.50 1915.09 L876.89 1915.09 L887.16 1914.97 L897.56 1914.97 L907.95 1914.84 L918.35 1914.72 L928.74 1914.72 L939.14 1914.60 L949.53 1914.47 L959.93 1914.35 L970.32 1914.22 L980.72 1914.10 L991.11 1913.98 L1001.51 1913.85 L1011.90 1913.73 L1022.30 1913.61 L1032.69 1913.36 L1043.09 1913.23 L1053.36 1912.99 L1063.76 1912.74 L1074.15 1912.49 L1084.55 1912.24 L1094.94 1912.00 L1105.34 1911.75 L1115.73 1911.50 L1126.13 1911.13 L1136.52 1910.76 L1146.92 1910.51 L1157.31 1910.02 L1167.71 1909.65 L1178.10 1909.27 L1188.49 1908.78 L1198.89 1908.28 L1209.29 1907.79 L1219.56 1907.17 L1229.95 1906.68 L1240.35 1906.06 L1250.74 1905.31 L1261.14 1904.70 L1271.53 1903.95 L1281.93 1903.21 L1292.32 1902.34 L1302.72 1901.48 L1313.11 1900.49 L1323.51 1899.62 L1333.90 1898.51 L1344.30 1897.39 L1354.69 1896.28 L1365.09 1895.04 L1375.48 1893.81 L1385.75 1892.44 L1396.15 1891.08 L1406.54 1889.60 L1416.94 1887.99 L1427.33 1886.38 L1437.73 1884.65 L1448.12 1882.79 L1458.52 1880.81 L1468.91 1878.83 L1479.31 1876.73 L1489.70 1874.50 L1500.10 1872.27 L1510.49 1869.80 L1520.89 1867.20 L1531.28 1864.60 L1541.68 1861.75 L1551.95 1858.91 L1562.34 1855.81 L1572.74 1852.60 L1583.13 1849.25 L1593.53 1845.79 L1603.92 1842.20 L1614.32 1838.36 L1624.71 1834.40 L1635.11 1830.32 L1645.50 1826.11 L1655.90 1821.66 L1666.29 1816.95 L1676.69 1812.13 L1687.08 1807.18 L1697.48 1801.98 L1707.87 1796.53 L1718.15 1790.97 L1728.54 1785.03 L1738.94 1779.09 L1749.33 1772.77 L1759.73 1766.34 L1770.12 1759.66 L1780.52 1752.60 L1790.91 1745.42 L1801.31 1738.00 L1811.70 1730.33 L1822.10 1722.41 L1832.49 1714.24 L1842.89 1705.82 L1853.28 1697.16 L1863.68 1688.13 L1874.07 1678.97 L1884.34 1669.44 L1894.74 1659.66 L1905.13 1649.52 L1915.53 1639.24 L1925.92 1628.60 L1936.32 1617.71 L1946.71 1606.45 L1957.11 1594.94 L1967.50 1583.18 L1977.90 1571.06 L1988.29 1558.68 L1998.69 1546.06 L2009.08 1533.19 L2019.48 1519.94 L2029.87 1506.33 L2040.27 1492.60 L2050.54 1478.49 L2060.93 1464.13 L2071.33 1449.41 L2081.72 1434.55 L2092.12 1419.33 L2102.51 1403.86 L2112.91 1388.15 L2123.30 1372.06 L2133.70 1355.85 L2144.09 1339.39 L2154.49 1322.68 L2164.88 1305.60 L2175.28 1288.40 L2185.67 1271.08 L2196.07 1253.38 L2206.46 1235.56 L2216.73 1217.61 L2227.13 1199.30 L2237.52 1180.98 L2247.92 1162.42 L2258.31 1143.73 L2268.71 1124.92 L2279.10 1105.99 L2289.50 1086.93 L2299.89 1067.75 L2310.29 1048.57 L2320.68 1029.26 L2331.08 1009.96 L2341.47 990.53 L2351.87 971.10 L2362.26 951.67 L2372.66 932.24 L2382.93 912.81 L2393.32 893.38 L2403.72 874.07 L2414.11 854.89 L2424.51 835.71 L2434.91 816.65 L2445.30 797.72 L2455.70 779.03 L2466.09 760.34 L2476.49 742.03 L2486.88 723.71 L2497.28 705.77 L2507.67 687.95 L2518.07 670.37 L2528.46 653.17 L2538.86 636.22 L2549.13 619.51 L2559.52 603.18 L2569.92 587.21 L2580.31 571.62 L2590.71 556.40 L2601.10 541.55 L2611.50 527.07 L2621.89 513.08 L2632.29 499.47 L2642.68 486.35 L2653.08 473.73 L2663.47 461.60 L2673.87 449.97 L2684.26 438.83 L2694.66 428.19 L2705.05 418.16 L2715.32 408.64 L2725.72 399.72 L2736.11 391.31 L2746.51 383.64 L2756.90 376.46 L2767.30 369.78 L2777.69 363.84 L2788.09 358.51 L2798.48 353.81 L2808.88 349.73 L2819.27 346.26 L2829.67 343.54 L2840.06 341.31 L2850.46 339.83 L2860.85 338.96 L2871.25 338.84 L2881.52 339.21 L2891.91 340.32 L2902.31 342.06 L2912.70 344.41 L2923.10 347.50 L2933.49 351.21 L2943.89 355.54 L2954.28 360.37 L2964.68 365.94 L2975.07 372.13 L2985.47 378.93 L2995.86 386.36 L3006.26 394.40 L3016.65 402.94 L3027.05 412.10 L3037.44 421.75 L3047.72 432.02 L3058.11 442.79 L3068.51 454.18 L3078.90 466.06 L3089.30 478.31 L3099.69 491.18 L3110.09 504.42 L3120.48 518.16 L3130.88 532.39 L3141.27 546.99 L3151.67 561.97 L3162.06 577.31 L3172.46 593.03 L3182.85 609.24 L3193.25 625.70 L3203.64 642.41 L3213.91 659.48 L3224.31 676.81 L3234.70 694.51 L3245.10 712.33 L3255.49 730.40 L3265.89 748.71 L3276.28 767.27 L3286.68 785.84 L3297.07 804.77 L3307.47 823.71 L3317.86 842.76 L3328.26 861.95 L3338.65 881.25 L3349.05 900.56 L3359.44 919.99 L3369.84 939.42 L3380.11 958.84 L3390.50 978.27 L3400.90 997.70 L3411.29 1017.01 L3421.69 1036.44 L3432.08 1055.62 L3442.48 1074.93 L3452.87 1093.98 L3463.27 1113.04 L3473.66 1131.85 L3484.06 1150.66 L3494.45 1169.35 L3504.85 1187.79 L3515.24 1206.11 L3525.64 1224.17 L3536.03 1242.12 L3546.30 1259.94 L3556.70 1277.51 L3567.09 1294.84 L3577.49 1311.91 L3587.88 1328.87 L3598.28 1345.45 L3608.67 1361.91 L3619.07 1378.00 L3629.46 1393.96 L3639.86 1409.56 L3650.25 1424.90 L3660.65 1440.00 L3671.04 1454.85 L3681.44 1469.45 L3691.83 1483.69 L3702.23 1497.67 L3712.50 1511.41 L3722.90 1524.77 L3733.29 1537.89 L3743.69 1550.76 L3754.08 1563.38 L3764.48 1575.63 L3774.87 1587.51 L3785.27 1599.27 L3795.66 1610.66" stroke-linejoin="round" style="fill:none;stroke:#FF4500;stroke-width:8.64"/>
	<line x1="390.80" y1="1979.20" x2="390.80" y2="275.35" style="stroke:#000000;stroke-width:5.76"/>
	<line x1="390.80" y1="1915.83" x2="350.83" y2="1915.83" style="stroke:#000000;stroke-width:5.76"/>
	<text x="300.72" y="1915.83" style="font-family:'Helvetica';font-size:99.99px;fill:#000000" transform="rotate(-90 300.72,1915.83)" text-anchor="middle">0</text>
	<line x1="390.80" y1="1542.96" x2="350.83" y2="1542.96" style="stroke:#000000;stroke-width:5.76"/>
	<text x="300.72" y="1542.96" style="font-family:'Helvetica';font-size:99.99px;fill:#000000" transform="rotate(-90 300.72,1542.96)" text-anchor="middle">.02</text>
	<line x1="390.80" y1="1170.22" x2="350.83" y2="1170.22" style="stroke:#000000;stroke-width:5.76"/>
	<text x="300.72" y="1170.22" style="font-family:'Helvetica';font-size:99.99px;fill:#000000" transform="rotate(-90 300.72,1170.22)" text-anchor="middle">.04</text>
	<line x1="390.80" y1="797.35" x2="350.83" y2="797.35" style="stroke:#000000;stroke-width:5.76"/>
	<text x="300.72" y="797.35" style="font-family:'Helvetica';font-size:99.99px;fill:#000000" transform="rotate(-90 300.72,797.35)" text-anchor="middle">.06</text>
	<line x1="390.80" y1="424.60" x2="350.83" y2="424.60" style="stroke:#000000;stroke-width:5.76"/>
	<text x="300.72" y="424.60" style="font-family:'Helvetica';font-size:99.99px;fill:#000000" transform="rotate(-90 300.72,424.60)" text-anchor="middle">.08</text>
	<text x="190.71" y="1127.27" style="font-family:'Helvetica';font-size:99.99px;fill:#000000" transform="rotate(-90 190.71,1127.27)" text-anchor="middle">Density</text>
	<line x1="390.80" y1="1979.20" x2="3859.02" y2="1979.20" style="stroke:#000000;stroke-width:5.76"/>
	<line x1="454.16" y1="1979.20" x2="454.16" y2="2019.17" style="stroke:#000000;stroke-width:5.76"/>
	<text x="454.16" y="2109.03" style="font-family:'Helvetica';font-size:99.99px;fill:#000000" text-anchor="middle">50</text>
	<line x1="1538.21" y1="1979.20" x2="1538.21" y2="2019.17" style="stroke:#000000;stroke-width:5.76"/>
	<text x="1538.21" y="2109.03" style="font-family:'Helvetica';font-size:99.99px;fill:#000000" text-anchor="middle">60</text>
	<line x1="2622.26" y1="1979.20" x2="2622.26" y2="2019.17" style="stroke:#000000;stroke-width:5.76"/>
	<text x="2622.26" y="2109.03" style="font-family:'Helvetica';font-size:99.99px;fill:#000000" text-anchor="middle">70</text>
	<line x1="3706.31" y1="1979.20" x2="3706.31" y2="2019.17" style="stroke:#000000;stroke-width:5.76"/>
	<text x="3706.31" y="2109.03" style="font-family:'Helvetica';font-size:99.99px;fill:#000000" text-anchor="middle">80</text>
	<text x="2124.91" y="2219.04" style="font-family:'Helvetica';font-size:99.99px;fill:#000000" text-anchor="middle">Life Expectancy</text>
	<rect x="1326.48" y="2303.68" width="1596.99" height="326.46" style="fill:#FFFFFF"/>
	<rect x="1329.36" y="2306.56" width="1591.23" height="320.70" style="fill:none;stroke:#000000;stroke-width:5.76"/>
	<line x1="1369.67" y1="2396.86" x2="1744.01" y2="2396.86" style="stroke:#006000;stroke-width:8.64"/>
	<line x1="1369.67" y1="2536.95" x2="1744.01" y2="2536.95" style="stroke:#FF4500;stroke-width:8.64"/>
	<text x="1804.03" y="2431.89" style="font-family:'Helvetica';font-size:99.99px;fill:#000000">Kernel density estimate</text>
	<text x="1804.03" y="2571.98" style="font-family:'Helvetica';font-size:99.99px;fill:#000000">Normal density</text>
	<text x="408.00" y="2737.89" style="font-family:'Helvetica';font-size:79.94px;fill:#000000">kernel = epanechnikov, bandwidth = 1.8250</text>
	<text x="2124.91" y="215.98" style="font-family:'Helvetica';font-size:139.96px;fill:#000000" text-anchor="middle">Distribution of Life Expectancy, 1998</text>
</svg>
