<?xml version="1.0" encoding="UTF-8" standalone="no"?>
<!-- This is a Stata 17.0 generated SVG file (http://www.stata.com) -->

<svg version="1.1" width="5.500in" height="4.000in" viewBox="0 0 3960 2880" xmlns="http://www.w3.org/2000/svg" xmlns:xlink="http://www.w3.org/1999/xlink">
	<desc>Stata Graph - Graph</desc>
	<rect x="0" y="0" width="3960" height="2880" style="fill:#FFFFFF;stroke:none"/>
	<rect x="0.00" y="0.00" width="3959.88" height="2880.00" style="fill:#FFFFFF"/>
	<rect x="2.88" y="2.88" width="3954.12" height="2874.24" style="fill:none;stroke:#FFFFFF;stroke-width:5.76"/>
	<rect x="393.68" y="278.23" width="3462.46" height="1952.52" style="fill:none;stroke:#000000;stroke-width:5.76"/>
	<rect x="454.16" y="2084.14" width="401.57" height="86.13" style="fill:#CAC27E"/>
	<rect x="458.48" y="2088.46" width="392.93" height="77.49" style="fill:none;stroke:#D7D29E;stroke-width:8.64"/>
	<rect x="1257.42" y="2084.14" width="401.57" height="86.13" style="fill:#CAC27E"/>
	<rect x="1261.74" y="2088.46" width="392.93" height="77.49" style="fill:none;stroke:#D7D29E;stroke-width:8.64"/>
	<rect x="1658.99" y="1911.75" width="401.69" height="258.52" style="fill:#CAC27E"/>
	<rect x="1663.31" y="1916.07" width="393.05" height="249.88" style="fill:none;stroke:#D7D29E;stroke-width:8.64"/>
	<rect x="2060.69" y="963.67" width="401.57" height="1206.60" style="fill:#CAC27E"/>
	<rect x="2065.00" y="967.99" width="392.93" height="1197.96" style="fill:none;stroke:#D7D29E;stroke-width:8.64"/>
	<rect x="2462.25" y="1049.80" width="401.69" height="1120.47" style="fill:#CAC27E"/>
	<rect x="2466.57" y="1054.12" width="393.05" height="1111.83" style="fill:none;stroke:#D7D29E;stroke-width:8.64"/>
	<rect x="2863.95" y="705.03" width="401.57" height="1465.25" style="fill:#CAC27E"/>
	<rect x="2868.27" y="709.35" width="392.93" height="1456.61" style="fill:none;stroke:#D7D29E;stroke-width:8.64"/>
	<rect x="3265.52" y="532.64" width="401.69" height="1637.63" style="fill:#CAC27E"/>
	<rect x="3269.83" y="536.96" width="393.05" height="1629.00" style="fill:none;stroke:#D7D29E;stroke-width:8.64"/>
	<path d=" M454.04 2120.89 L464.81 2120.89 L475.57 2121.02 L486.34 2121.02 L497.10 2121.27 L507.75 2121.39 L518.51 2121.64 L529.28 2121.88 L540.04 2122.26 L550.81 2122.63 L561.58 2123.00 L572.34 2123.37 L582.99 2123.86 L593.75 2124.36 L604.52 2124.98 L615.29 2125.60 L626.05 2126.22 L636.82 2126.83 L647.46 2127.58 L658.23 2128.44 L668.99 2129.19 L679.76 2130.05 L690.53 2130.92 L701.29 2131.91 L711.93 2132.90 L722.70 2133.89 L733.47 2134.88 L744.23 2135.99 L755.00 2137.23 L765.77 2138.34 L776.41 2139.58 L787.17 2140.82 L797.94 2142.18 L808.71 2143.54 L819.47 2144.90 L830.24 2146.39 L840.88 2147.87 L851.65 2149.36 L862.41 2150.84 L873.18 2152.45 L883.95 2154.18 L894.71 2155.79 L905.36 2157.52 L916.12 2159.26 L926.89 2161.11 L937.65 2162.97 L948.42 2164.83 L959.19 2166.56 L969.83 2166.56 L980.60 2166.19 L991.36 2164.21 L1002.13 2162.35 L1012.89 2160.50 L1023.66 2158.76 L1034.30 2157.03 L1045.07 2155.30 L1055.84 2153.56 L1066.60 2151.96 L1077.37 2150.35 L1088.13 2148.86 L1098.90 2147.38 L1109.54 2145.89 L1120.31 2144.41 L1131.08 2143.05 L1141.84 2141.68 L1152.61 2140.45 L1163.37 2139.21 L1174.02 2137.97 L1184.78 2136.86 L1195.55 2135.62 L1206.32 2134.63 L1217.08 2133.15 L1227.85 2130.18 L1238.49 2127.21 L1249.26 2124.36 L1260.02 2121.64 L1270.79 2118.91 L1281.56 2116.31 L1292.32 2113.84 L1302.96 2111.36 L1313.73 2109.14 L1324.50 2106.79 L1335.26 2104.68 L1346.03 2102.08 L1356.80 2098.00 L1367.44 2094.16 L1378.20 2090.45 L1388.97 2086.74 L1399.74 2083.27 L1410.50 2079.93 L1421.27 2076.71 L1431.91 2073.50 L1442.68 2070.53 L1453.44 2067.68 L1464.21 2064.83 L1474.98 2061.62 L1485.74 2057.16 L1496.39 2052.83 L1507.15 2048.62 L1517.92 2044.66 L1528.68 2040.83 L1539.45 2037.11 L1550.22 2033.65 L1560.86 2030.31 L1571.63 2027.09 L1582.39 2024.12 L1593.16 2021.27 L1603.92 2015.33 L1614.69 2002.83 L1625.33 1990.70 L1636.10 1978.95 L1646.87 1967.56 L1657.63 1956.67 L1668.40 1946.03 L1679.16 1935.76 L1689.93 1925.98 L1700.57 1916.45 L1711.34 1907.29 L1722.11 1898.63 L1732.87 1888.73 L1743.64 1876.73 L1754.40 1865.22 L1765.05 1854.20 L1775.81 1843.56 L1786.58 1833.41 L1797.35 1823.76 L1808.11 1814.48 L1818.88 1805.69 L1829.52 1797.40 L1840.29 1789.60 L1851.05 1782.18 L1861.82 1769.43 L1872.59 1749.01 L1883.35 1729.34 L1893.99 1710.40 L1904.76 1692.21 L1915.53 1674.76 L1926.29 1658.18 L1937.06 1642.21 L1947.83 1626.99 L1958.47 1612.51 L1969.23 1598.90 L1980.00 1585.91 L1990.77 1569.20 L2001.53 1547.79 L2012.30 1526.38 L2022.94 1504.72 L2033.71 1484.18 L2044.47 1464.38 L2055.24 1445.57 L2066.01 1427.75 L2076.77 1410.67 L2087.42 1394.71 L2098.18 1379.48 L2108.95 1365.25 L2119.71 1348.05 L2130.48 1327.63 L2141.25 1308.33 L2151.89 1290.13 L2162.66 1273.06 L2173.42 1256.97 L2184.19 1242.12 L2194.95 1228.13 L2205.72 1215.39 L2216.36 1203.63 L2227.13 1192.99 L2237.90 1183.46 L2248.66 1170.84 L2259.43 1155.49 L2270.19 1140.14 L2280.96 1125.17 L2291.60 1111.56 L2302.37 1099.06 L2313.14 1087.67 L2323.90 1077.65 L2334.67 1068.74 L2345.43 1061.07 L2356.08 1054.51 L2366.84 1049.31 L2377.61 1034.95 L2388.38 1014.29 L2399.14 993.74 L2409.91 974.19 L2420.55 956.00 L2431.32 939.54 L2442.08 924.44 L2452.85 910.95 L2463.61 899.07 L2474.38 888.68 L2485.02 879.77 L2495.79 872.46 L2506.56 862.94 L2517.32 852.79 L2528.09 842.76 L2538.86 833.85 L2549.50 826.55 L2560.26 820.86 L2571.03 816.78 L2581.80 814.30 L2592.56 813.43 L2603.33 814.18 L2613.97 816.53 L2624.74 820.61 L2635.50 819.62 L2646.27 817.02 L2657.04 808.86 L2667.80 799.45 L2678.45 791.78 L2689.21 785.59 L2699.98 781.01 L2710.74 778.16 L2721.51 776.93 L2732.28 777.17 L2742.92 779.15 L2753.69 782.74 L2764.45 782.37 L2775.22 781.26 L2785.98 778.91 L2796.75 777.17 L2807.52 777.30 L2818.16 779.03 L2828.93 782.37 L2839.69 787.57 L2850.46 794.38 L2861.22 802.92 L2871.99 813.19 L2882.63 825.07 L2893.40 832.86 L2904.17 840.41 L2914.93 838.31 L2925.70 834.97 L2936.46 833.11 L2947.11 832.86 L2957.87 834.22 L2968.64 837.19 L2979.41 841.65 L2990.17 847.71 L3000.94 855.39 L3011.58 864.67 L3022.35 864.67 L3033.11 863.31 L3043.88 855.14 L3054.65 847.10 L3065.41 840.66 L3076.05 835.83 L3086.82 832.74 L3097.59 831.25 L3108.35 831.50 L3119.12 833.36 L3129.89 836.82 L3140.53 842.02 L3151.29 842.39 L3162.06 843.01 L3172.83 838.31 L3183.59 834.22 L3194.36 831.87 L3205.00 831.13 L3215.77 832.12 L3226.53 834.60 L3237.30 838.93 L3248.07 844.87 L3258.83 852.42 L3269.48 861.57 L3280.24 872.59 L3291.01 885.09 L3301.77 891.77 L3312.54 899.32 L3323.31 908.35 L3333.95 918.87 L3344.72 931.00 L3355.48 944.49 L3366.25 959.46 L3377.01 976.05 L3387.78 993.99 L3398.55 1013.54 L3409.19 1034.58 L3419.96 1057.11 L3430.72 1063.42 L3441.49 1070.10 L3452.25 1078.02 L3463.02 1086.93 L3473.66 1096.95 L3484.43 1108.09 L3495.20 1120.47 L3505.96 1133.83 L3516.73 1148.44 L3527.49 1164.15 L3538.14 1180.86 L3548.90 1198.80 L3559.67 1211.67 L3570.44 1225.66 L3581.20 1240.51 L3591.97 1256.35 L3602.61 1273.30 L3613.38 1291.12 L3624.14 1310.06 L3634.91 1329.86 L3645.68 1350.77 L3656.44 1372.68 L3667.08 1395.45" stroke-linejoin="round" style="fill:none;stroke:#FF4500;stroke-width:8.64"/>
	<line x1="390.80" y1="2233.63" x2="390.80" y2="275.35" style="stroke:#000000;stroke-width:5.76"/>
	<line x1="390.80" y1="2170.27" x2="350.83" y2="2170.27" style="stroke:#000000;stroke-width:5.76"/>
	<text x="300.72" y="2170.27" style="font-family:'Helvetica';font-size:99.99px;fill:#000000" transform="rotate(-90 300.72,2170.27)" text-anchor="middle">0</text>
	<line x1="390.80" y1="1803.96" x2="350.83" y2="1803.96" style="stroke:#000000;stroke-width:5.76"/>
	<text x="300.72" y="1803.96" style="font-family:'Helvetica';font-size:99.99px;fill:#000000" transform="rotate(-90 300.72,1803.96)" text-anchor="middle">.02</text>
	<line x1="390.80" y1="1437.65" x2="350.83" y2="1437.65" style="stroke:#000000;stroke-width:5.76"/>
	<text x="300.72" y="1437.65" style="font-family:'Helvetica';font-size:99.99px;fill:#000000" transform="rotate(-90 300.72,1437.65)" text-anchor="middle">.04</text>
	<line x1="390.80" y1="1071.34" x2="350.83" y2="1071.34" style="stroke:#000000;stroke-width:5.76"/>
	<text x="300.72" y="1071.34" style="font-family:'Helvetica';font-size:99.99px;fill:#000000" transform="rotate(-90 300.72,1071.34)" text-anchor="middle">.06</text>
	<line x1="390.80" y1="705.03" x2="350.83" y2="705.03" style="stroke:#000000;stroke-width:5.76"/>
	<text x="300.72" y="705.03" style="font-family:'Helvetica';font-size:99.99px;fill:#000000" transform="rotate(-90 300.72,705.03)" text-anchor="middle">.08</text>
	<line x1="390.80" y1="338.71" x2="350.83" y2="338.71" style="stroke:#000000;stroke-width:5.76"/>
	<text x="300.72" y="338.71" style="font-family:'Helvetica';font-size:99.99px;fill:#000000" transform="rotate(-90 300.72,338.71)" text-anchor="middle">.1</text>
	<text x="190.71" y="1254.49" style="font-family:'Helvetica';font-size:99.99px;fill:#000000" transform="rotate(-90 190.71,1254.49)" text-anchor="middle">Density</text>
	<line x1="390.80" y1="2233.63" x2="3859.02" y2="2233.63" style="stroke:#000000;stroke-width:5.76"/>
	<line x1="582.62" y1="2233.63" x2="582.62" y2="2273.73" style="stroke:#000000;stroke-width:5.76"/>
	<text x="582.62" y="2363.59" style="font-family:'Helvetica';font-size:99.99px;fill:#000000" text-anchor="middle">55</text>
	<line x1="1225.25" y1="2233.63" x2="1225.25" y2="2273.73" style="stroke:#000000;stroke-width:5.76"/>
	<text x="1225.25" y="2363.59" style="font-family:'Helvetica';font-size:99.99px;fill:#000000" text-anchor="middle">60</text>
	<line x1="1867.88" y1="2233.63" x2="1867.88" y2="2273.73" style="stroke:#000000;stroke-width:5.76"/>
	<text x="1867.88" y="2363.59" style="font-family:'Helvetica';font-size:99.99px;fill:#000000" text-anchor="middle">65</text>
	<line x1="2510.52" y1="2233.63" x2="2510.52" y2="2273.73" style="stroke:#000000;stroke-width:5.76"/>
	<text x="2510.52" y="2363.59" style="font-family:'Helvetica';font-size:99.99px;fill:#000000" text-anchor="middle">70</text>
	<line x1="3153.15" y1="2233.63" x2="3153.15" y2="2273.73" style="stroke:#000000;stroke-width:5.76"/>
	<text x="3153.15" y="2363.59" style="font-family:'Helvetica';font-size:99.99px;fill:#000000" text-anchor="middle">75</text>
	<line x1="3795.66" y1="2233.63" x2="3795.66" y2="2273.73" style="stroke:#000000;stroke-width:5.76"/>
	<text x="3795.66" y="2363.59" style="font-family:'Helvetica';font-size:99.99px;fill:#000000" text-anchor="middle">80</text>
	<text x="2124.91" y="2473.60" style="font-family:'Helvetica';font-size:99.99px;fill:#000000" text-anchor="middle">Life Expectancy</text>
	<rect x="1110.66" y="2558.24" width="2028.51" height="186.37" style="fill:#FFFFFF"/>
	<rect x="1113.54" y="2561.12" width="2022.75" height="180.61" style="fill:none;stroke:#000000;stroke-width:5.76"/>
	<rect x="1153.85" y="2601.43" width="374.47" height="99.99" style="fill:#CAC27E"/>
	<rect x="1158.16" y="2605.75" width="365.83" height="91.35" style="fill:none;stroke:#D7D29E;stroke-width:8.64"/>
	<line x1="2069.47" y1="2651.43" x2="2443.94" y2="2651.43" style="stroke:#FF4500;stroke-width:8.64"/>
	<text x="1588.33" y="2686.46" style="font-family:'Helvetica';font-size:99.99px;fill:#000000">Density</text>
	<text x="2503.96" y="2686.46" style="font-family:'Helvetica';font-size:99.99px;fill:#000000">kdensity lexp</text>
	<text x="2124.91" y="215.98" style="font-family:'Helvetica';font-size:139.96px;fill:#000000" text-anchor="middle">Distribution of Life Expectancy, 1998</text>
</svg>
