<?xml version="1.0" encoding="UTF-8"?>
<svg version="1.0" viewBox="40 40 134 132" xmlns="http://www.w3.org/2000/svg">
<g transform="translate(0 213) scale(.1 -.1)">
<path d="m400 1070v-660h175 175v75 75h-105-105v585 585h-70-70v-660z"/>
<path d="m1062 1715c-90-28-163-101-199-197-9-27-16-77-16-133 0-110 16-153 127-347 42-74 85-159 96-191 55-156-4-275-141-285l-59-4v-74-74h39c119 0 225 59 277 155 84 152 65 308-61 511-24 39-64 111-87 160-39 81-43 96-43 166 0 62 4 82 21 104 33 45 65 64 132 76l62 12v68 68l-52-1c-29 0-72-6-96-14z"/>
<path d="m1380 1070v-660h180 180v75 75h-110-110v225 225h100 100v75 75h-100-100l2 213 3 212 108 3 107 3v69 70h-180-180v-660z"/>
</g>
</svg>
